<?xml version="1.0" standalone="no"?><!DOCTYPE svg PUBLIC "-//W3C//DTD SVG 1.1//EN" "http://www.w3.org/Graphics/SVG/1.1/DTD/svg11.dtd"><svg width="200" height="200" viewBox="0 0 200 200" version="1.1" xmlns="http://www.w3.org/2000/svg" xmlns:xlink="http://www.w3.org/1999/xlink"><defs><style type="text/css"><![CDATA[
@font-face { font-family: ifont; src: url("//at.alicdn.com/t/font_1442373896_4754455.eot?#iefix") format("embedded-opentype"), url("//at.alicdn.com/t/font_1442373896_4754455.woff") format("woff"), url("//at.alicdn.com/t/font_1442373896_4754455.ttf") format("truetype"), url("//at.alicdn.com/t/font_1442373896_4754455.svg#ifont") format("svg"); }

]]></style></defs><g class="transform-group"><g transform="scale(0.2, 0.2)"><path d="M77.4786 168.148c290.8437 0 581.6715-0.017 872.5152 0v558.4034024931096c-290.8437-0.017-581.6715 0.017-872.5152-0.017V168.14799565894327zM112.3794 203.0134c-0.034 162.8736-0.017 325.7312 0 488.6057 267.5666-0.017 535.1481-0.017 802.7147 0 0.017-162.8736 0.033-325.7322 0-488.6057C647.5275 203.0303 379.946 203.0303 112.3794 203.0134zM266.876 762.0303c2.2156-0.4087 4.4482-0.6306 6.6967-0.6306 158.3991 0.035 316.7802 0.052 475.1803 0 7.4802-0.1529 16.5804-0.4097 21.8121 5.9799 6.3909 6.2717 5.9472 17.8079-0.6986 23.7389-3.9715 4.362-10.2745 5.0096-15.8319 5.2145-160.7496-0.052-321.5012-0.019-482.2518-0.019-7.924 0.1889-16.4105-4.2941-18.5922-12.3017C249.7329 774.5389 256.8044 763.0856 266.876 762.0303z" fill="#272636"></path></g></g></svg>