<?xml version="1.0" standalone="no"?><!DOCTYPE svg PUBLIC "-//W3C//DTD SVG 1.1//EN" "http://www.w3.org/Graphics/SVG/1.1/DTD/svg11.dtd"><svg width="200" height="200" viewBox="0 0 200 200" version="1.1" xmlns="http://www.w3.org/2000/svg" xmlns:xlink="http://www.w3.org/1999/xlink"><defs><style type="text/css"><![CDATA[
@font-face { font-family: ifont; src: url("//at.alicdn.com/t/font_1442373896_4754455.eot?#iefix") format("embedded-opentype"), url("//at.alicdn.com/t/font_1442373896_4754455.woff") format("woff"), url("//at.alicdn.com/t/font_1442373896_4754455.ttf") format("truetype"), url("//at.alicdn.com/t/font_1442373896_4754455.svg#ifont") format("svg"); }

]]></style></defs><g class="transform-group"><g transform="scale(0.1953125, 0.1953125)"><path d="M508.470272 111.275008c-222.84288 0-404.113408 181.301248-404.113408 404.144128 0 222.841856 181.270528 404.145152 404.113408 404.145152 222.860288 0 404.144128-181.305344 404.144128-404.145152C912.6144 292.576256 731.328512 111.275008 508.470272 111.275008zM508.468224 875.599872c-198.587392 0-360.148992-161.579008-360.148992-360.180736 0-198.591488 161.5616-360.184832 360.148992-360.184832 198.592512 0 360.183808 161.595392 360.183808 360.184832C868.652032 714.020864 707.05664 875.599872 508.468224 875.599872zM635.92448 356.122624 508.485632 483.559424 381.048832 356.122624 349.18912 387.981312 476.626944 515.419136 349.188096 642.85696 381.047808 674.716672 508.485632 547.277824 635.923456 674.716672 667.783168 642.855936 540.345344 515.419136 667.783168 387.981312Z" fill="#fff"></path></g></g></svg>