<?xml version="1.0" standalone="no"?><!DOCTYPE svg PUBLIC "-//W3C//DTD SVG 1.1//EN" "http://www.w3.org/Graphics/SVG/1.1/DTD/svg11.dtd"><svg width="200" height="200" viewBox="0 0 200 200" version="1.1" xmlns="http://www.w3.org/2000/svg" xmlns:xlink="http://www.w3.org/1999/xlink"><defs><style type="text/css"><![CDATA[
@font-face { font-family: ifont; src: url("//at.alicdn.com/t/font_1442373896_4754455.eot?#iefix") format("embedded-opentype"), url("//at.alicdn.com/t/font_1442373896_4754455.woff") format("woff"), url("//at.alicdn.com/t/font_1442373896_4754455.ttf") format("truetype"), url("//at.alicdn.com/t/font_1442373896_4754455.svg#ifont") format("svg"); }

]]></style></defs><g class="transform-group"><g transform="scale(0.1953125, 0.1953125)"><path d="M512 1024C229.23264 1024 0 794.76736 0 512 0 229.23264 229.23264 0 512 0 794.76736 0 1024 229.23264 1024 512 1024 794.76736 794.76736 1024 512 1024ZM512 61.44C263.168 61.44 61.44 263.168 61.44 512 61.44 760.832 263.168 962.56 512 962.56 760.832 962.56 962.56 760.832 962.56 512 962.56 263.168 760.832 61.44 512 61.44ZM523.96032 665.12896C523.55072 665.6 523.40736 666.17344 522.97728 666.624 511.03744 678.72768 491.66336 678.72768 479.72352 666.624L295.17824 476.65152C283.2384 464.54784 283.2384 444.90752 295.17824 432.80384 307.11808 420.67968 326.49216 420.67968 338.432 432.80384L501.9648 601.12896 684.52352 418.57024C696.46336 406.77376 715.83744 406.77376 727.77728 418.57024 739.7376 430.3872 739.7376 449.51552 727.77728 461.312L523.96032 665.12896Z" fill="#888"></path></g></g></svg>