<?xml version="1.0" standalone="no"?><!DOCTYPE svg PUBLIC "-//W3C//DTD SVG 1.1//EN" "http://www.w3.org/Graphics/SVG/1.1/DTD/svg11.dtd"><svg width="200" height="200" viewBox="0 0 200 200" version="1.1" xmlns="http://www.w3.org/2000/svg" xmlns:xlink="http://www.w3.org/1999/xlink"><defs><style type="text/css"><![CDATA[
@font-face { font-family: ifont; src: url("//at.alicdn.com/t/font_1442373896_4754455.eot?#iefix") format("embedded-opentype"), url("//at.alicdn.com/t/font_1442373896_4754455.woff") format("woff"), url("//at.alicdn.com/t/font_1442373896_4754455.ttf") format("truetype"), url("//at.alicdn.com/t/font_1442373896_4754455.svg#ifont") format("svg"); }

]]></style></defs><g class="transform-group"><g transform="scale(0.1953125, 0.1953125)"><path d="M516.396 475.332c-25.856 0-46.836 20.967-46.836 46.838 0 25.873 20.98 46.837 46.836 46.837 25.874 0 46.837-20.964 46.837-46.837C563.232 496.299 542.27 475.332 516.396 475.332zM969.148 475.332l-49.749 0C897.918 288.658 749.878 140.74 563.232 119.241L563.232 69.418c0-25.858-20.963-46.837-46.837-46.837-25.856 0-46.836 20.979-46.836 46.837l0 49.746c-186.689 21.483-334.594 169.525-356.091 356.168L63.645 475.332c-25.873 0-46.838 20.967-46.838 46.838 0 25.873 20.965 46.837 46.838 46.837l49.748 0c21.482 186.69 169.522 334.594 356.167 356.106l0 49.809c0 25.874 20.98 46.838 46.836 46.838 25.874 0 46.837-20.964 46.837-46.838l0-49.809c186.646-21.513 334.686-169.416 356.167-356.106l49.749 0c25.873 0 46.837-20.964 46.837-46.837C1015.985 496.299 995.021 475.332 969.148 475.332zM734.968 569.007l89.783 0c-20.336 134.87-126.725 241.257-261.519 261.611L563.232 740.74c0-25.873-20.963-46.836-46.837-46.836-25.856 0-46.836 20.963-46.836 46.836l0 89.878c-134.792-20.354-241.18-126.741-261.519-261.611l89.785 0c25.873 0 46.837-20.964 46.837-46.837 0-25.871-20.964-46.838-46.837-46.838L207.95 475.332c20.353-134.791 126.756-241.177 261.609-261.519l0 89.785c0 25.872 20.98 46.838 46.836 46.838 25.874 0 46.837-20.966 46.837-46.838l0-89.86c134.794 20.338 241.183 126.742 261.519 261.594l-89.783 0c-25.873 0-46.836 20.967-46.836 46.838C688.132 548.043 709.095 569.007 734.968 569.007z" fill="#272636"></path></g></g></svg>